<svg viewBox="0 0 600 350" height="350" width="600" xmlns="http://www.w3.org/2000/svg" style="font-family:&quot;Lucida Grande&quot;, &quot;Lucida Sans Unicode&quot;, Arial, Helvetica, sans-serif;font-size:12px;" class="highcharts-root" version="1.1" xmlns:xlink="http://www.w3.org/1999/xlink"><desc>Created with Highcharts 9.3.0</desc><defs><clipPath id="highcharts-d4gd4ju-83-"><rect fill="none" height="266" width="525" y="0" x="0"></rect></clipPath><clipPath id="highcharts-d4gd4ju-102-"><rect fill="none" height="266" width="525" y="0" x="0"></rect></clipPath></defs><rect ry="0" rx="0" height="350" width="600" y="0" x="0" class="highcharts-background" fill="#ffffff"></rect><rect height="266" width="525" y="10" x="65" class="highcharts-plot-background" fill="none"></rect><g data-z-index="0" class="highcharts-pane-group"></g><g data-z-index="1" class="highcharts-grid highcharts-xaxis-grid"><path opacity="1" d="M 69.5 10 L 69.5 276" class="highcharts-grid-line" data-z-index="1" stroke-dasharray="none" fill="none"></path><path opacity="1" d="M 192.5 10 L 192.5 276" class="highcharts-grid-line" data-z-index="1" stroke-dasharray="none" fill="none"></path><path opacity="1" d="M 315.5 10 L 315.5 276" class="highcharts-grid-line" data-z-index="1" stroke-dasharray="none" fill="none"></path><path opacity="1" d="M 437.5 10 L 437.5 276" class="highcharts-grid-line" data-z-index="1" stroke-dasharray="none" fill="none"></path><path opacity="1" d="M 560.5 10 L 560.5 276" class="highcharts-grid-line" data-z-index="1" stroke-dasharray="none" fill="none"></path></g><g data-z-index="1" class="highcharts-grid highcharts-yaxis-grid"><path opacity="1" d="M 65 276.5 L 590 276.5" class="highcharts-grid-line" data-z-index="1" stroke-dasharray="none" stroke-width="1" stroke="#e6e6e6" fill="none"></path><path opacity="1" d="M 65 223.5 L 590 223.5" class="highcharts-grid-line" data-z-index="1" stroke-dasharray="none" stroke-width="1" stroke="#e6e6e6" fill="none"></path><path opacity="1" d="M 65 170.5 L 590 170.5" class="highcharts-grid-line" data-z-index="1" stroke-dasharray="none" stroke-width="1" stroke="#e6e6e6" fill="none"></path><path opacity="1" d="M 65 116.5 L 590 116.5" class="highcharts-grid-line" data-z-index="1" stroke-dasharray="none" stroke-width="1" stroke="#e6e6e6" fill="none"></path><path opacity="1" d="M 65 63.5 L 590 63.5" class="highcharts-grid-line" data-z-index="1" stroke-dasharray="none" stroke-width="1" stroke="#e6e6e6" fill="none"></path><path opacity="1" d="M 65 9.5 L 590 9.5" class="highcharts-grid-line" data-z-index="1" stroke-dasharray="none" stroke-width="1" stroke="#e6e6e6" fill="none"></path></g><rect height="266" width="525" y="10" x="65" data-z-index="1" class="highcharts-plot-border" fill="none"></rect><g data-z-index="2" class="highcharts-axis highcharts-xaxis"><path opacity="1" d="M 69.5 276 L 69.5 286" stroke-width="1" stroke="#ccd6eb" class="highcharts-tick" fill="none"></path><path opacity="1" d="M 192.5 276 L 192.5 286" stroke-width="1" stroke="#ccd6eb" class="highcharts-tick" fill="none"></path><path opacity="1" d="M 315.5 276 L 315.5 286" stroke-width="1" stroke="#ccd6eb" class="highcharts-tick" fill="none"></path><path opacity="1" d="M 437.5 276 L 437.5 286" stroke-width="1" stroke="#ccd6eb" class="highcharts-tick" fill="none"></path><path opacity="1" d="M 560.5 276 L 560.5 286" stroke-width="1" stroke="#ccd6eb" class="highcharts-tick" fill="none"></path><path d="M 65 276.5 L 590 276.5" data-z-index="7" stroke-width="1" stroke="#ccd6eb" class="highcharts-axis-line" fill="none"></path></g><g data-z-index="2" class="highcharts-axis highcharts-yaxis"><text y="143" style="color:#666666;font-size:12px;fill:#666666;" class="highcharts-axis-title" transform="translate(0,0) rotate(270 24.09375 143)" text-anchor="middle" data-z-index="7" x="24.09375">CUMULATIVE</text><path d="M 65 10 L 65 276" data-z-index="7" class="highcharts-axis-line" fill="none"></path></g><g data-z-index="3" class="highcharts-series-group"><g clip-path="url(#highcharts-d4gd4ju-102-)" transform="translate(65,10) scale(1 1)" opacity="1" data-z-index="1" class="highcharts-series highcharts-series-0 highcharts-scatter-series"></g><g clip-path="none" transform="translate(65,10) scale(1 1)" opacity="1" data-z-index="1" class="highcharts-markers highcharts-series-0 highcharts-scatter-series"><path class="highcharts-point tag-0" opacity="1" d="M 86 169 A 4 4 0 1 1 86.00399999933333 168.99999800000018 Z" fill="#ddd"></path><path class="highcharts-point tag-0" opacity="1" d="M 86 213 A 4 4 0 1 1 86.00399999933333 212.99999800000018 Z" fill="#ddd"></path><path class="highcharts-point tag-0" opacity="1" d="M 175 137 A 4 4 0 1 1 175.00399999933333 136.99999800000018 Z" fill="#ddd"></path><path class="highcharts-point tag-350" opacity="1" d="M 175 189 A 4 4 0 1 1 175.00399999933333 188.99999800000018 Z" fill="#ddd"></path><path class="highcharts-point tag-0" opacity="1" d="M 175 109 A 4 4 0 1 1 175.00399999933333 108.99999800000016 Z" fill="#ddd"></path><path class="highcharts-point tag-0" opacity="1" d="M 175 113 A 4 4 0 1 1 175.00399999933333 112.99999800000016 Z" fill="#ddd"></path><path class="highcharts-point tag-0" opacity="1" d="M 175 119 A 4 4 0 1 1 175.00399999933333 118.99999800000016 Z" fill="#ddd"></path><path class="highcharts-point tag-0" opacity="1" d="M 176 123 A 4 4 0 1 1 176.00399999933333 122.99999800000016 Z" fill="#ddd"></path><path class="highcharts-point tag-0" opacity="1" d="M 226 113 A 4 4 0 1 1 226.00399999933333 112.99999800000016 Z" fill="#ddd"></path><path class="highcharts-point tag-350" opacity="1" d="M 226 161 A 4 4 0 1 1 226.00399999933333 160.99999800000018 Z" fill="#ddd"></path><path class="highcharts-point tag-0" opacity="1" d="M 342 92 A 4 4 0 1 1 342.00399999933336 91.99999800000016 Z" fill="#ddd"></path><path class="highcharts-point tag-0" opacity="1" d="M 344 135 A 4 4 0 1 1 344.00399999933336 134.99999800000018 Z" fill="#ddd"></path><path class="highcharts-point tag-0" opacity="1" d="M 344 155 A 4 4 0 1 1 344.00399999933336 154.99999800000018 Z" fill="#ddd"></path><path class="highcharts-point tag-0" opacity="1" d="M 344 185 A 4 4 0 1 1 344.00399999933336 184.99999800000018 Z" fill="#ddd"></path><path class="highcharts-point tag-0" opacity="1" d="M 347 147 A 4 4 0 1 1 347.00399999933336 146.99999800000018 Z" fill="#ddd"></path><path class="highcharts-point tag-0" opacity="1" d="M 347 148 A 4 4 0 1 1 347.00399999933336 147.99999800000018 Z" fill="#ddd"></path><path class="highcharts-point tag-0" opacity="1" d="M 429 142 A 4 4 0 1 1 429.00399999933336 141.99999800000018 Z" fill="#ddd"></path><path class="highcharts-point tag-0" opacity="1" d="M 451 68 A 4 4 0 1 1 451.00399999933336 67.99999800000016 Z" fill="#ddd"></path></g><g clip-path="url(#highcharts-d4gd4ju-102-)" transform="translate(65,10) scale(1 1)" opacity="1" data-z-index="2" class="highcharts-series highcharts-series-3 highcharts-line-series"><path stroke-linecap="round" stroke-linejoin="round" stroke-width="2" stroke="#21ccc7" data-z-index="1" class="highcharts-graph" d="M 18.986958859909 147.36399999999998 L 86.545442323205 135.128 L 138.97889217532 115.44399999999999 L 175.61508470019 103.73999999999998 L 298.96813659586 91.76999999999998 L 340.98211884915 87.51400000000001 L 421.31285291745 74.47999999999999 L 449.54624899166 43.889999999999986 L 506.01304114009 37.23999999999998" fill="none"></path></g><g clip-path="none" transform="translate(65,10) scale(1 1)" opacity="1" data-z-index="2" class="highcharts-markers highcharts-series-3 highcharts-line-series"><path class="highcharts-point tag-0" opacity="1" d="M 18 151 A 4 4 0 1 1 18.003999999333335 150.99999800000018 Z" fill="#21ccc7"></path><path class="highcharts-point tag-0" opacity="1" d="M 86 139 A 4 4 0 1 1 86.00399999933333 138.99999800000018 Z" fill="#21ccc7"></path><path class="highcharts-point tag-0" opacity="1" d="M 138 119 A 4 4 0 1 1 138.00399999933333 118.99999800000016 Z" fill="#21ccc7"></path><path class="highcharts-point tag-0" opacity="1" d="M 175 108 A 4 4 0 1 1 175.00399999933333 107.99999800000016 Z" fill="#21ccc7"></path><path class="highcharts-point tag-0" opacity="1" d="M 298 96 A 4 4 0 1 1 298.00399999933336 95.99999800000016 Z" fill="#21ccc7"></path><path class="highcharts-point tag-0" opacity="1" d="M 340 92 A 4 4 0 1 1 340.00399999933336 91.99999800000016 Z" fill="#21ccc7"></path><path class="highcharts-point tag-0" opacity="1" d="M 421 78 A 4 4 0 1 1 421.00399999933336 77.99999800000016 Z" fill="#21ccc7"></path><path class="highcharts-point tag-0" opacity="1" d="M 449 48 A 4 4 0 1 1 449.00399999933336 47.99999800000017 Z" fill="#21ccc7"></path><path class="highcharts-point tag-0" opacity="1" d="M 506 41 A 4 4 0 1 1 506.00399999933336 40.99999800000017 Z" fill="#21ccc7"></path></g><g clip-path="url(#highcharts-d4gd4ju-102-)" transform="translate(65,10) scale(1 1)" opacity="1" data-z-index="3" class="highcharts-series highcharts-series-1 highcharts-errorbar-series"></g><g clip-path="none" transform="translate(65,10) scale(1 1)" opacity="1" data-z-index="3" class="highcharts-markers highcharts-series-1 highcharts-errorbar-series"></g><g clip-path="url(#highcharts-d4gd4ju-102-)" transform="translate(65,10) scale(1 1)" opacity="1" data-z-index="3" class="highcharts-series highcharts-series-2 highcharts-errorbar-series"></g><g clip-path="none" transform="translate(65,10) scale(1 1)" opacity="1" data-z-index="3" class="highcharts-markers highcharts-series-2 highcharts-errorbar-series"></g></g><g transform="translate(65,10) scale(1 1)" opacity="1" data-z-index="3" class="highcharts-data-labels highcharts-series-3 highcharts-line-series"><g transform="translate(-5,126)" data-z-index="1" class="highcharts-label highcharts-data-label highcharts-data-label-color-undefined"><text style="color:#4a4a4a;font-size:11px;font-weight:normal;fill:#4a4a4a;" y="16" data-z-index="1" x="5"><tspan style="" stroke-linejoin="round" stroke-width="2px" stroke="#FFFFFF" fill="#FFFFFF" class="highcharts-text-outline">PACT (reproduced by Thor)<tspan y="16" x="5">​</tspan></tspan>PACT (reproduced by Thor)</text></g><g transform="translate(53,114)" data-z-index="1" class="highcharts-label highcharts-data-label highcharts-data-label-color-undefined"><text style="color:#4a4a4a;font-size:11px;font-weight:normal;fill:#4a4a4a;" y="16" data-z-index="1" x="5"><tspan style="" stroke-linejoin="round" stroke-width="2px" stroke="#FFFFFF" fill="#FFFFFF" class="highcharts-text-outline">Lean GPT-f<tspan y="16" x="5">​</tspan></tspan>Lean GPT-f</text></g><g transform="translate(83,94)" data-z-index="1" class="highcharts-label highcharts-data-label highcharts-data-label-color-undefined"><text style="color:#4a4a4a;font-size:11px;font-weight:normal;fill:#4a4a4a;" y="16" data-z-index="1" x="5"><tspan style="" stroke-linejoin="round" stroke-width="2px" stroke="#FFFFFF" fill="#FFFFFF" class="highcharts-text-outline">Lean Expert Iteration<tspan y="16" x="5">​</tspan></tspan>Lean Expert Iteration</text></g><g style="pointer-events:none;" opacity="0" transform="translate(151,83)" data-z-index="1" class="highcharts-label highcharts-data-label highcharts-data-label-color-undefined highcharts-data-label-hidden"><text style="color:#4a4a4a;font-size:11px;font-weight:normal;fill:#4a4a4a;" y="16" data-z-index="1" x="5"><tspan style="" stroke-linejoin="round" stroke-width="2px" stroke="#FFFFFF" fill="#FFFFFF" class="highcharts-text-outline">Evariste<tspan y="16" x="5">​</tspan></tspan>Evariste</text></g><g transform="translate(231,71)" data-z-index="1" class="highcharts-label highcharts-data-label highcharts-data-label-color-undefined"><text style="color:#4a4a4a;font-size:11px;font-weight:normal;fill:#4a4a4a;" y="16" data-z-index="1" x="5"><tspan style="" stroke-linejoin="round" stroke-width="2px" stroke="#FFFFFF" fill="#FFFFFF" class="highcharts-text-outline">Decomposing the Enigma<tspan y="16" x="5">​</tspan></tspan>Decomposing the Enigma</text></g><g style="pointer-events:none;" opacity="0" transform="translate(303,67)" data-z-index="1" class="highcharts-label highcharts-data-label highcharts-data-label-color-undefined highcharts-data-label-hidden"><text style="color:#4a4a4a;font-size:11px;font-weight:normal;fill:#4a4a4a;" y="16" data-z-index="1" x="5"><tspan style="" stroke-linejoin="round" stroke-width="2px" stroke="#FFFFFF" fill="#FFFFFF" class="highcharts-text-outline">Lyra + GPT-4<tspan y="16" x="5">​</tspan></tspan>Lyra + GPT-4</text></g><g transform="translate(372,53)" data-z-index="1" class="highcharts-label highcharts-data-label highcharts-data-label-color-undefined"><text style="color:#4a4a4a;font-size:11px;font-weight:normal;fill:#4a4a4a;" y="16" data-z-index="1" x="5"><tspan style="" stroke-linejoin="round" stroke-width="2px" stroke="#FFFFFF" fill="#FFFFFF" class="highcharts-text-outline">DeepSeek-Prover<tspan y="16" x="5">​</tspan></tspan>DeepSeek-Prover</text></g><g transform="translate(388,23)" data-z-index="1" class="highcharts-label highcharts-data-label highcharts-data-label-color-undefined"><text style="color:#4a4a4a;font-size:11px;font-weight:normal;fill:#4a4a4a;" y="16" data-z-index="1" x="5"><tspan style="" stroke-linejoin="round" stroke-width="2px" stroke="#FFFFFF" fill="#FFFFFF" class="highcharts-text-outline">DeepSeek-Prover-V1.5<tspan y="16" x="5">​</tspan></tspan>DeepSeek-Prover-V1.5</text></g><g style="pointer-events:none;" opacity="0" transform="translate(474,16)" data-z-index="1" class="highcharts-label highcharts-data-label highcharts-data-label-color-undefined highcharts-data-label-hidden"><text style="color:#4a4a4a;font-size:11px;font-weight:normal;fill:#4a4a4a;" y="16" data-z-index="1" x="5"><tspan style="" stroke-linejoin="round" stroke-width="2px" stroke="#FFFFFF" fill="#FFFFFF" class="highcharts-text-outline">ProofAug<tspan y="16" x="5">​</tspan></tspan>ProofAug</text></g></g><text y="24" style="color:#333333;font-size:18px;fill:#333333;" data-z-index="4" class="highcharts-title" text-anchor="middle" x="300"></text><text y="24" style="color:#666666;fill:#666666;" data-z-index="4" class="highcharts-subtitle" text-anchor="middle" x="300"></text><text y="347" style="color:#666666;fill:#666666;" data-z-index="4" class="highcharts-caption" text-anchor="start" x="10"></text><g transform="translate(65,10) scale(1 1)" opacity="1" data-z-index="6" class="highcharts-data-labels highcharts-series-1 highcharts-errorbar-series"></g><g transform="translate(65,10) scale(1 1)" opacity="1" data-z-index="6" class="highcharts-data-labels highcharts-series-2 highcharts-errorbar-series"></g><g transform="translate(122,308)" data-z-index="7" class="highcharts-legend highcharts-no-tooltip"><rect visibility="visible" height="27" width="356" y="0" x="0" ry="0" rx="0" class="highcharts-legend-box" fill="#ffffff"></rect><g data-z-index="1"><g><g transform="translate(8,3)" data-z-index="1" class="highcharts-legend-item highcharts-scatter-series highcharts-color-undefined highcharts-series-0"><path class="highcharts-graph" d="M 0 13 L 16 13" fill="none"></path><path opacity="1" class="highcharts-point" d="M 8 17 A 4 4 0 1 1 8.003999999333336 16.99999800000017 Z" fill="#ddd"></path><text y="17" data-z-index="2" text-anchor="start" style="color:#414141;cursor:pointer;font-size:14px;font-weight:normal;fill:#414141;" x="21">Other models</text></g><g transform="translate(133.046875,3)" data-z-index="1" class="highcharts-legend-item highcharts-line-series highcharts-color-undefined highcharts-series-3"><path stroke-width="2" stroke="#21ccc7" class="highcharts-graph" d="M 0 13 L 16 13" fill="none"></path><path opacity="1" class="highcharts-point" d="M 8 17 A 4 4 0 1 1 8.003999999333336 16.99999800000017 Z" fill="#21ccc7"></path><text data-z-index="2" text-anchor="start" style="color:#414141;cursor:pointer;font-size:14px;font-weight:normal;fill:#414141;" y="17" x="21">Models with highest cumulative</text></g></g></g></g><g data-z-index="7" class="highcharts-axis-labels highcharts-xaxis-labels"><text opacity="1" y="295" transform="translate(0,0)" text-anchor="middle" style="color:#666666;cursor:default;font-size:11px;fill:#666666;" x="70.206372680828">2021</text><text opacity="1" y="295" transform="translate(0,0)" text-anchor="middle" style="color:#666666;cursor:default;font-size:11px;fill:#666666;" x="192.88720086045">2022</text><text opacity="1" y="295" transform="translate(0,0)" text-anchor="middle" style="color:#666666;cursor:default;font-size:11px;fill:#666666;" x="315.56802904006">2023</text><text opacity="1" y="295" transform="translate(0,0)" text-anchor="middle" style="color:#666666;cursor:default;font-size:11px;fill:#666666;" x="438.24885721968">2024</text><text opacity="1" y="295" transform="translate(0,0)" text-anchor="middle" style="color:#666666;cursor:default;font-size:11px;fill:#666666;" x="561.26579725733">2025</text></g><g data-z-index="7" class="highcharts-axis-labels highcharts-yaxis-labels"><text opacity="1" y="281" transform="translate(0,0)" text-anchor="end" style="color:#666666;cursor:default;font-size:11px;fill:#666666;" x="50">-20</text><text opacity="1" y="228" transform="translate(0,0)" text-anchor="end" style="color:#666666;cursor:default;font-size:11px;fill:#666666;" x="50">0</text><text opacity="1" y="175" transform="translate(0,0)" text-anchor="end" style="color:#666666;cursor:default;font-size:11px;fill:#666666;" x="50">20</text><text opacity="1" y="121" transform="translate(0,0)" text-anchor="end" style="color:#666666;cursor:default;font-size:11px;fill:#666666;" x="50">40</text><text opacity="1" y="68" transform="translate(0,0)" text-anchor="end" style="color:#666666;cursor:default;font-size:11px;fill:#666666;" x="50">60</text><text opacity="1" y="15" transform="translate(0,0)" text-anchor="end" style="color:#666666;cursor:default;font-size:11px;fill:#666666;" x="50">80</text></g></svg>